<svg width="171" height="271" viewBox="0 0 171 271" fill="none" xmlns="http://www.w3.org/2000/svg">
<path d="M86.549 2.08251C86.549 2.08251 86.4765 2.08251 86.3315 2.06641" stroke="#231F20" stroke-width="3" stroke-miterlimit="10"/>
<path d="M86.549 83.499C86.4604 83.499 86.3718 83.499 86.2832 83.4829" stroke="#231F20" stroke-width="3" stroke-miterlimit="10"/>
<path d="M29.4629 94.7261C27.3126 89.2011 17.9942 63.5173 19.2989 37.4629C19.452 34.4427 19.2023 31.4064 18.4049 28.4829C16.7378 22.3861 12.0826 15.3147 4.44756 31.4467C-5.76478 53.0392 18.9848 90.1112 23.6883 97.0054C24.4051 98.0524 25.3474 98.9222 26.4911 99.4779C27.8844 100.154 29.5435 100.356 29.8737 97.7947C30.0026 96.7557 29.8334 95.7087 29.4549 94.7342L29.4629 94.7261Z" fill="#186EBF" stroke="white" stroke-width="3" stroke-miterlimit="10"/>
<path d="M139.165 88.0899C139.165 92.3746 115.495 95.8458 86.2832 95.8458C57.0718 95.8458 33.4094 92.3746 33.4094 88.0899C33.4094 83.8052 57.0798 80.334 86.2832 80.334C115.487 80.334 139.165 83.8052 139.165 88.0899Z" fill="#186EBF" stroke="white" stroke-width="3" stroke-miterlimit="10"/>
<path d="M142.475 93.3248C142.516 99.2524 142.113 126.571 131.643 150.459C130.427 153.23 129.581 156.161 129.291 159.173C128.687 165.472 130.531 173.727 143.393 161.356C160.605 144.797 150.634 101.354 148.677 93.2362C148.379 92.0039 147.807 90.8522 146.937 89.9341C145.874 88.8065 144.392 88.0253 143.176 90.3126C142.685 91.2388 142.467 92.2777 142.475 93.3248Z" fill="#186EBF" stroke="white" stroke-width="3" stroke-miterlimit="10"/>
<path d="M86.2831 83.4911C19.1942 81.1313 30.663 51.2594 30.663 51.2594C45.4499 0.189641 83.126 1.82458 86.3234 2.05814C90.0926 1.80847 127.237 0.64066 141.903 51.2594C141.903 51.2594 153.364 81.1313 86.2751 83.4911H86.2831Z" fill="#186EBF" stroke="white" stroke-width="3" stroke-miterlimit="10"/>
<path d="M123.154 56.7361C120.585 59.555 111.758 66.3122 86.3074 65.9256H86.2591C60.8088 66.3122 51.9817 59.555 49.4125 56.7361C48.8004 56.0515 48.4944 55.1415 48.5669 54.2233C49.2998 44.9694 55.308 38.8484 58.4812 36.2148C59.5121 35.353 60.9457 35.2 62.1457 35.788C69.1607 39.2511 85.2362 39.5491 86.2591 39.5652H86.3074C87.3141 39.5491 103.406 39.2511 110.421 35.788C111.621 35.2 113.054 35.353 114.085 36.2148C117.267 38.8484 123.267 44.9774 124 54.2233C124.072 55.1415 123.774 56.0596 123.154 56.7361Z" fill="#186EBF" stroke="white" stroke-width="3" stroke-miterlimit="10"/>
<path d="M64.4973 51.38C66.7363 49.1893 69.4102 47.4497 72.7767 47.3853C76.9808 47.1356 79.8641 50.7518 78.2695 54.7304L77.8748 54.8271C76.4654 53.7317 75.5553 52.8216 74.7419 52.2257C73.8801 51.678 73.4855 50.8726 72.4385 50.5907C69.8773 50.0108 67.1954 50.8082 64.7228 51.7102L64.4893 51.38H64.4973Z" fill="white"/>
<path d="M107.843 51.7104C105.379 50.8083 102.689 50.0029 100.128 50.5909C99.0807 50.8728 98.6861 51.6782 97.8243 52.2258C97.0108 52.8218 96.1008 53.7319 94.6913 54.8272L94.2967 54.7306C93.5638 53.0634 93.7571 51.2191 94.7316 49.6405C96.8014 46.4995 101.738 47.0794 104.485 48.674C105.83 49.4231 107.03 50.309 108.069 51.3802L107.835 51.7104H107.843Z" fill="white"/>
<path d="M85.8224 197C130.355 195.448 139 88 139 88C139 88 137.458 95.506 86 95.506C34.5417 95.506 33 88.0159 33 88.0159" fill="#186EBF"/>
<path d="M85.8224 197C130.355 195.448 139 88 139 88C139 88 137.458 95.506 86 95.506C34.5417 95.506 33 88.0159 33 88.0159" stroke="white" stroke-width="3" stroke-miterlimit="10"/>
<path d="M87 197C41.7854 195.448 33 88 33 88L87 197Z" fill="#186EBF"/>
<path d="M87 197C41.7854 195.448 33 88 33 88" stroke="white" stroke-width="3" stroke-miterlimit="10"/>
<path d="M98.3647 163.528L86.4869 178.166L74.6091 163.528C74.1054 162.823 73.8837 161.956 73.9845 161.09L80.3213 111.735C80.4221 110.97 81.2885 110.556 81.9332 110.99C83.6761 112.158 85.7112 112.309 86.497 112.33C87.2828 112.309 89.3178 112.158 91.0607 110.99C91.6954 110.556 92.5719 110.97 92.6626 111.735L98.9994 161.09C99.1102 161.956 98.8886 162.823 98.3748 163.528H98.3647Z" fill="white" stroke="#186EBF" stroke-width="3" stroke-miterlimit="10"/>
<path d="M86.8092 112.813C92.1117 112.813 96.4102 109.101 96.4102 104.522C96.4102 99.9426 92.1117 96.2305 86.8092 96.2305C81.5068 96.2305 77.2083 99.9426 77.2083 104.522C77.2083 109.101 81.5068 112.813 86.8092 112.813Z" fill="white" stroke="#186EBF" stroke-miterlimit="10"/>
<path d="M14.8529 217.14V235.095C14.8529 236.565 15.1679 237.735 15.7979 238.605C16.4579 239.445 17.5079 239.865 18.9479 239.865C20.3879 239.865 21.4529 239.445 22.1429 238.605C22.8329 237.735 23.1779 236.565 23.1779 235.095V217.14H33.1229V235.095C33.1229 238.125 32.4929 240.72 31.2329 242.88C29.9729 245.01 28.2479 246.615 26.0579 247.695C23.8679 248.775 21.4229 249.315 18.7229 249.315C16.0229 249.315 13.6229 248.775 11.5229 247.695C9.45289 246.615 7.83289 245.01 6.66289 242.88C5.49289 240.75 4.90789 238.155 4.90789 235.095V217.14H14.8529ZM63.4866 228.075C63.4866 230.085 63.0216 231.915 62.0916 233.565C61.1616 235.185 59.7816 236.475 57.9516 237.435C56.1516 238.395 53.9616 238.875 51.3816 238.875H47.4216V249H37.4316V217.14H51.3816C55.2816 217.14 58.2666 218.13 60.3366 220.11C62.4366 222.09 63.4866 224.745 63.4866 228.075ZM50.2566 231C52.3266 231 53.3616 230.025 53.3616 228.075C53.3616 226.125 52.3266 225.15 50.2566 225.15H47.4216V231H50.2566ZM79.1203 249.315C75.3103 249.315 72.1603 248.43 69.6703 246.66C67.2103 244.86 65.8753 242.235 65.6653 238.785H76.2853C76.4353 240.615 77.2453 241.53 78.7153 241.53C79.2553 241.53 79.7053 241.41 80.0653 241.17C80.4553 240.9 80.6503 240.495 80.6503 239.955C80.6503 239.205 80.2453 238.605 79.4353 238.155C78.6253 237.675 77.3653 237.135 75.6553 236.535C73.6153 235.815 71.9203 235.11 70.5703 234.42C69.2503 233.73 68.1103 232.725 67.1503 231.405C66.1903 230.085 65.7253 228.39 65.7553 226.32C65.7553 224.25 66.2803 222.495 67.3303 221.055C68.4103 219.585 69.8653 218.475 71.6953 217.725C73.5553 216.975 75.6403 216.6 77.9503 216.6C81.8503 216.6 84.9403 217.5 87.2203 219.3C89.5303 221.1 90.7453 223.635 90.8653 226.905H80.1103C80.0803 226.005 79.8553 225.36 79.4353 224.97C79.0153 224.58 78.5053 224.385 77.9053 224.385C77.4853 224.385 77.1403 224.535 76.8703 224.835C76.6003 225.105 76.4653 225.495 76.4653 226.005C76.4653 226.725 76.8553 227.325 77.6353 227.805C78.4453 228.255 79.7203 228.81 81.4603 229.47C83.4703 230.22 85.1203 230.94 86.4103 231.63C87.7303 232.32 88.8703 233.28 89.8303 234.51C90.7903 235.74 91.2703 237.285 91.2703 239.145C91.2703 241.095 90.7903 242.85 89.8303 244.41C88.8703 245.94 87.4753 247.14 85.6453 248.01C83.8153 248.88 81.6403 249.315 79.1203 249.315ZM104.77 225.105V229.02H114.67V236.535H104.77V241.035H116.02V249H94.7803V217.14H116.02V225.105H104.77ZM129.775 225.105V229.02H139.675V236.535H129.775V241.035H141.025V249H119.785V217.14H141.025V225.105H129.775ZM157.255 249.315C153.445 249.315 150.295 248.43 147.805 246.66C145.345 244.86 144.01 242.235 143.8 238.785H154.42C154.57 240.615 155.38 241.53 156.85 241.53C157.39 241.53 157.84 241.41 158.2 241.17C158.59 240.9 158.785 240.495 158.785 239.955C158.785 239.205 158.38 238.605 157.57 238.155C156.76 237.675 155.5 237.135 153.79 236.535C151.75 235.815 150.055 235.11 148.705 234.42C147.385 233.73 146.245 232.725 145.285 231.405C144.325 230.085 143.86 228.39 143.89 226.32C143.89 224.25 144.415 222.495 145.465 221.055C146.545 219.585 148 218.475 149.83 217.725C151.69 216.975 153.775 216.6 156.085 216.6C159.985 216.6 163.075 217.5 165.355 219.3C167.665 221.1 168.88 223.635 169 226.905H158.245C158.215 226.005 157.99 225.36 157.57 224.97C157.15 224.58 156.64 224.385 156.04 224.385C155.62 224.385 155.275 224.535 155.005 224.835C154.735 225.105 154.6 225.495 154.6 226.005C154.6 226.725 154.99 227.325 155.77 227.805C156.58 228.255 157.855 228.81 159.595 229.47C161.605 230.22 163.255 230.94 164.545 231.63C165.865 232.32 167.005 233.28 167.965 234.51C168.925 235.74 169.405 237.285 169.405 239.145C169.405 241.095 168.925 242.85 167.965 244.41C167.005 245.94 165.61 247.14 163.78 248.01C161.95 248.88 159.775 249.315 157.255 249.315Z" fill="#186EBF"/>
</svg>
